<?xml version="1.0" encoding="UTF-8"?>
<svg id="Layer_2" data-name="Layer 2" xmlns="http://www.w3.org/2000/svg" viewBox="0 0 244.06 28.01">
  <defs>
    <style>
      .cls-1 {
        stroke-width: 0px;
      }
    </style>
  </defs>
  <g id="Content">
    <g>
      <path class="cls-1" d="m24.44,17.03h3.19c-1.39,6.25-6.98,10.94-13.65,10.94C6.27,27.97,0,21.69,0,13.98S6.27,0,13.98,0c6.78,0,12.45,4.85,13.72,11.26h-6.26l-5.66-5.66c-2.8-2.8-7.35-2.8-10.16,0s-2.8,7.35,0,10.16l6.57,6.57c2.8,2.8,7.35,2.8,10.16,0,1.46-1.46,2.15-3.39,2.09-5.3Z"/>
      <path class="cls-1" d="m58.68,13.98c0,7.71-6.27,13.98-13.98,13.98s-13.98-6.27-13.98-13.98S36.99,0,44.7,0s13.98,6.27,13.98,13.98Zm-5.6-1.8l-6.57-6.57c-2.8-2.8-7.35-2.8-10.16,0-2.8,2.8-2.8,7.35,0,10.16l6.57,6.57c2.8,2.8,7.35,2.8,10.16,0s2.8-7.35,0-10.16Z"/>
      <path class="cls-1" d="m85.48,13.98c0,7.71-6.27,13.98-13.98,13.98h-8.54V0h8.54c7.71,0,13.98,6.27,13.98,13.98Zm-5.93-3.24c0-3.97-3.21-7.18-7.18-7.18h-7.18v20.87h7.18c3.97,0,7.18-3.22,7.18-7.18v-6.51Z"/>
      <path class="cls-1" d="m110.62,16.16l.02-.02h-18.38c-.35,2.2.31,4.52,2.01,6.22,2.81,2.81,7.35,2.81,10.16,0l2.89-2.89h8.17c-2.14,4.99-7.1,8.5-12.86,8.5-7.71,0-13.98-6.27-13.98-13.98S94.91,0,102.62,0s13.98,6.27,13.98,13.98c0,.74-.06,1.47-.17,2.18h-5.82Zm2.38-4.34c.34-2.19-.33-4.5-2.01-6.18-2.81-2.81-7.35-2.81-10.16,0l-6.18,6.18h18.35Z"/>
      <path class="cls-1" d="m144.16,17.03h3.19c-1.39,6.25-6.98,10.94-13.64,10.94-7.71,0-13.98-6.27-13.98-13.98s6.27-13.98,13.98-13.98c6.78,0,12.45,4.85,13.71,11.26h-6.26l-5.66-5.66c-2.8-2.8-7.35-2.8-10.16,0s-2.8,7.35,0,10.16l6.57,6.57c2.8,2.8,7.35,2.8,10.16,0,1.46-1.46,2.15-3.39,2.09-5.3Z"/>
      <path class="cls-1" d="m173.25,22.31v5.66h-4.33v-4.76h-.02v-.79c0-3.16-2.56-5.71-5.71-5.71,0,0-.01,0-.02,0v-.03h-5.68v5.31c-.01.14-.02.29-.02.44v5.59h-5.92V0h13.2c4.6,0,8.34,3.74,8.34,8.34,0,2.59-1.19,4.91-3.05,6.44,1.97,1.91,3.2,4.58,3.2,7.53Zm-3.09-15.06c0-2.81-2.27-5.08-5.08-5.08h-7.58v2.16h0v8.03h5.26v-.03h2.32c2.8,0,5.08-2.27,5.08-5.08Z"/>
      <path class="cls-1" d="m199.85,28.01h-6.1l-2.19-9.45h-8.15l-2.54,9.45h-4.48l7.1-26.41c.21-.77.82-1.34,1.56-1.53h8.32l6.47,27.94Zm-8.79-11.61l-2.8-12.08h-1.02l-3.25,12.08h7.06Z"/>
      <path class="cls-1" d="m209.58,2.16v8.95h11.03v4.32h-11.03v12.57h-5.95V.03h1.89v-.03h16.16v2.16h-12.11Z"/>
      <path class="cls-1" d="m244.06.07v2.16h-7.34v25.75h-5.95V2.24h-7.26V.07h20.54Z"/>
    </g>
  </g>
</svg>