<?xml version="1.0" encoding="UTF-8"?>
<svg id="Layer_2" data-name="Layer 2" xmlns="http://www.w3.org/2000/svg" viewBox="0 0 63.5 63.5">
  <defs>
    <style>
      .cls-1, .cls-2 {
        stroke-width: 0px;
      }

      .cls-2 {
        fill: #ff4656;
      }
    </style>
  </defs>
  <g id="Content">
    <g>
      <circle class="cls-1" cx="33.5" cy="33.5" r="30"/>
      <circle class="cls-2" cx="30" cy="30" r="30"/>
      <path class="cls-1" d="m43.24,33.81h3.99c-1.74,7.81-8.73,13.67-17.06,13.67-9.64,0-17.48-7.84-17.48-17.48s7.84-17.48,17.48-17.48c8.48,0,15.56,6.06,17.15,14.08h-7.83l-7.07-7.07c-3.51-3.51-9.19-3.51-12.7,0-3.51,3.51-3.51,9.19,0,12.7l8.21,8.21c3.51,3.51,9.19,3.51,12.7,0,1.82-1.82,2.69-4.23,2.62-6.62Z"/>
    </g>
  </g>
</svg>